HIERARCHY
ROOT hip
{
	OFFSET 0.000000 0.000000 0.000000
	CHANNELS 6 Xposition Yposition Zposition Xrotation Zrotation Yrotation 
	JOINT abdomen
	{
		OFFSET 0.000000 3.422050 0.000000
		CHANNELS 3 Xrotation Zrotation Yrotation 
		JOINT chest
		{
			OFFSET 0.000000 8.486693 -0.684411
			CHANNELS 3 Xrotation Zrotation Yrotation 
			JOINT neck
			{
				OFFSET 0.000000 10.266162 -0.273764
				CHANNELS 3 Xrotation Zrotation Yrotation 
				JOINT head
				{
					OFFSET 0.000000 3.148285 0.000000
					CHANNELS 3 Xrotation Zrotation Yrotation 
					End Site
					{
						OFFSET 0.000000 3.148289 0.000000
					}
				}
			}
			JOINT lCollar
			{
				OFFSET 3.422053 6.707223 -0.821293
				CHANNELS 3 Yrotation Zrotation Xrotation 
				JOINT lShldr
				{
					OFFSET 3.285171 0.000000 0.000000
					CHANNELS 3 Zrotation Yrotation Xrotation 
					JOINT lForeArm
					{
						OFFSET 10.129278 0.000000 0.000000
						CHANNELS 3 Yrotation Zrotation Xrotation 
						JOINT lHand
						{
							OFFSET 8.486692 0.000000 0.000000
							CHANNELS 3 Zrotation Yrotation Xrotation 
							End Site
							{
								OFFSET 4.106464 0.000000 0.000000
							}
						}
					}
				}
			}
			JOINT rCollar
			{
				OFFSET -3.558935 6.707223 -0.821293
				CHANNELS 3 Yrotation Zrotation Xrotation 
				JOINT rShldr
				{
					OFFSET -3.148289 0.000000 0.000000
					CHANNELS 3 Zrotation Yrotation Xrotation 
					JOINT rForeArm
					{
						OFFSET -10.266159 0.000000 0.000000
						CHANNELS 3 Yrotation Zrotation Xrotation 
						JOINT rHand
						{
							OFFSET -8.349810 0.000000 0.000000
							CHANNELS 3 Zrotation Yrotation Xrotation 
							End Site
							{
								OFFSET -4.106464 0.000000 0.000000
							}
						}
					}
				}
			}
		}
	}
	JOINT lThigh
	{
		OFFSET 5.338403 -1.642589 1.368821
		CHANNELS 3 Xrotation Zrotation Yrotation 
		JOINT lShin
		{
			OFFSET -2.053232 -20.121670 0.000000
			CHANNELS 3 Xrotation Zrotation Yrotation 
			JOINT lFoot
			{
				OFFSET 0.000000 -19.300380 -1.231939
				CHANNELS 3 Xrotation Yrotation Zrotation 
				End Site
				{
					OFFSET 0.000000 -2.463878 4.653993
				}
			}
		}
	}
	JOINT rThigh
	{
		OFFSET -5.338403 -1.642589 1.368821
		CHANNELS 3 Xrotation Zrotation Yrotation 
		JOINT rShin
		{
			OFFSET 2.053232 -20.121670 0.000000
			CHANNELS 3 Xrotation Zrotation Yrotation 
			JOINT rFoot
			{
				OFFSET 0.000000 -19.300380 -1.231939
				CHANNELS 3 Xrotation Yrotation Zrotation 
				End Site
				{
					OFFSET 0.000000 -2.463878 4.653993
				}
			}
		}
	}
}
MOTION
Frames: 11
Frame Time: 0.033264
0.000000 43.528500 0.000000 0.000000 0.000000 0.000000 0.000000 0.000000 0.000000 0.000000 0.000000 0.000000 0.000000 0.000000 0.000000 0.000000 0.000000 0.000000 0.000000 0.000000 0.000000 0.000000 0.000000 0.000000 0.000000 0.000000 0.000000 0.000000 0.000000 0.000000 0.000000 0.000000 0.000000 0.000000 0.000000 0.000000 0.000000 0.000000 0.000000 0.000000 0.000000 0.000000 0.000000 0.000000 0.000000 0.000000 0.000000 0.000000 0.000000 0.000000 0.000000 0.000000 0.000000 0.000000 0.000000 0.000000 0.000000 0.000000 0.000000 0.000000 
3.979968 13.482107 -23.239929 0.000000 0.000000 0.000000 -0.393152 -0.177203 -0.175991 0.636209 0.843473 0.198780 0.208075 0.012240 0.000022 -25.001125 0.000000 0.000000 -30.753490 -13.697402 -4.015413 6.189034 -22.832716 -64.732353 -42.317825 4.393536 -41.455303 -13.183467 -8.482379 -37.136028 42.342972 21.560076 -7.523085 8.589209 34.082195 -57.765171 10.918862 14.441749 -36.234989 13.181177 8.477946 -37.136509 -51.053371 6.104117 -0.001257 145.193680 5.531421 -0.735253 56.309616 8.205308 3.192663 -117.055717 -6.109780 -0.000808 106.199036 -5.531147 0.730154 3.311987 -8.210266 -3.194896 
3.979968 13.482107 -23.239929 0.000000 0.000000 0.000000 -0.393152 -0.177203 -0.175991 0.636209 0.843473 0.198780 0.208075 0.012240 0.000022 -24.496391 0.063946 0.030253 -30.629892 -14.063128 -3.992499 5.631433 -22.632479 -64.551193 -43.634899 3.630707 -41.459751 -13.568227 -8.857013 -37.041714 42.342972 21.560076 -7.523085 8.589209 34.082195 -57.765171 10.918862 14.441749 -36.234989 13.181177 8.477946 -37.136509 -51.053371 6.104117 -0.001257 145.193680 5.531421 -0.735253 56.309616 8.205308 3.192663 -117.055717 -6.109780 -0.000808 106.199036 -5.531147 0.730154 3.311987 -8.210266 -3.194896 
3.979968 13.482107 -23.239929 0.000000 0.000000 0.000000 -0.393152 -0.177203 -0.175991 0.636209 0.843473 0.198780 0.208075 0.012240 0.000022 -23.991009 0.127701 0.061106 -30.505856 -14.429058 -3.968716 5.074524 -22.430325 -64.372147 -44.960316 2.862798 -41.481956 -13.954537 -9.231520 -36.944614 42.342972 21.560076 -7.523085 8.589209 34.082195 -57.765171 10.918863 14.441751 -36.234989 13.181177 8.477946 -37.136509 -51.053371 6.104117 -0.001257 145.193680 5.531421 -0.735253 56.309616 8.205308 3.192664 -117.055725 -6.109781 -0.000808 106.199036 -5.531147 0.730154 3.311987 -8.210267 -3.194896 
3.979968 13.482107 -23.239929 0.000000 0.000000 0.000000 -0.393152 -0.177203 -0.175991 0.636209 0.843473 0.198780 0.208075 0.012240 0.000022 -23.484978 0.191257 0.092559 -30.381365 -14.795185 -3.944058 4.518322 -22.226290 -64.195251 -46.294163 2.090455 -41.522251 -14.342416 -9.605861 -36.844715 42.342972 21.560076 -7.523085 8.589207 34.082199 -57.765179 10.918863 14.441751 -36.234989 13.181177 8.477946 -37.136509 -51.053371 6.104117 -0.001257 145.193680 5.531421 -0.735253 56.309616 8.205308 3.192663 -117.055717 -6.109780 -0.000808 106.199036 -5.531147 0.730154 3.311987 -8.210266 -3.194896 
3.979968 13.482107 -23.239929 0.000000 0.000000 0.000000 -0.393152 -0.177203 -0.175991 0.636209 0.843473 0.198780 0.208075 0.012240 0.000022 -22.978327 0.254605 0.124609 -30.256424 -15.161499 -3.918516 3.962858 -22.020391 -64.020515 -47.636536 1.314345 -41.580925 -14.731897 -9.980004 -36.742008 42.342972 21.560076 -7.523085 8.589209 34.082199 -57.765179 10.918862 14.441749 -36.234989 13.181177 8.477946 -37.136509 -51.053375 6.104117 -0.001257 145.193680 5.531421 -0.735253 56.309620 8.205308 3.192663 -117.055717 -6.109780 -0.000808 106.199036 -5.531147 0.730154 3.311987 -8.210267 -3.194896 
3.979968 13.482107 -23.239929 0.000000 0.000000 0.000000 -0.393152 -0.177203 -0.175991 0.636209 0.843473 0.198780 0.208075 0.012240 0.000022 -22.471075 0.317738 0.157255 -30.131012 -15.527987 -3.892084 3.408149 -21.812668 -63.847965 -48.987499 0.535160 -41.658272 -15.122995 -10.353909 -36.636471 42.342979 21.560078 -7.523086 8.589211 34.082199 -57.765179 10.918862 14.441749 -36.234989 13.181177 8.477947 -37.136509 -51.053371 6.104117 -0.001257 145.193680 5.531421 -0.735253 56.309616 8.205308 3.192663 -117.055717 -6.109781 -0.000808 106.199036 -5.531147 0.730154 3.311987 -8.210268 -3.194896 
3.979968 13.482107 -23.239929 0.000000 0.000000 0.000000 -0.393152 -0.177203 -0.175991 0.636209 0.843473 0.198780 0.208075 0.012240 0.000022 -21.963242 0.380647 0.190494 -30.005123 -15.894641 -3.864753 2.854216 -21.603138 -63.677635 -50.347145 -0.246385 -41.754559 -15.515737 -10.727537 -36.528069 42.342972 21.560076 -7.523085 8.589208 34.082195 -57.765171 10.918861 14.441749 -36.234985 13.181175 8.477946 -37.136509 -51.053368 6.104116 -0.001257 145.193680 5.531421 -0.735253 56.309616 8.205308 3.192663 -117.055725 -6.109780 -0.000808 106.199028 -5.531146 0.730154 3.311987 -8.210266 -3.194896 
3.979968 13.482107 -23.239929 0.000000 0.000000 0.000000 -0.393152 -0.177203 -0.175991 0.636209 0.843473 0.198780 0.208075 0.012240 0.000022 -21.454840 0.443323 0.224326 -29.878742 -16.261448 -3.836515 2.301079 -21.391827 -63.509510 -51.715519 -1.029555 -41.870037 -15.910139 -11.100851 -36.416794 42.342968 21.560074 -7.523085 8.589209 34.082195 -57.765171 10.918862 14.441749 -36.234989 13.181176 8.477946 -37.136509 -51.053371 6.104116 -0.001257 145.193680 5.531421 -0.735253 56.309616 8.205308 3.192664 -117.055725 -6.109780 -0.000808 106.199036 -5.531147 0.730154 3.311987 -8.210265 -3.194896 
3.979968 13.482107 -23.239929 0.000000 0.000000 0.000000 -0.393152 -0.177203 -0.175991 0.636209 0.843473 0.198780 0.208075 0.012240 0.000022 -20.945887 0.505758 0.258747 -29.751871 -16.628405 -3.807364 1.748756 -21.178766 -63.343647 -53.092724 -1.813578 -42.004951 -16.306234 -11.473815 -36.302635 42.342972 21.560076 -7.523085 8.589208 34.082195 -57.765171 10.918861 14.441747 -36.234985 13.181177 8.477946 -37.136509 -51.053368 6.104116 -0.001257 145.193680 5.531421 -0.735253 56.309608 8.205308 3.192664 -117.055725 -6.109780 -0.000808 106.199036 -5.531147 0.730154 3.311987 -8.210266 -3.194896 
3.979968 13.482107 -23.239929 0.000000 0.000000 0.000000 -0.393152 -0.177203 -0.175991 0.636209 0.843473 0.198780 0.208075 0.012240 0.000022 -20.436405 0.567945 0.293756 -29.624477 -16.995489 -3.777289 1.197266 -20.963985 -63.180031 -54.478786 -2.597690 -42.159492 -16.704039 -11.846387 -36.185566 42.342972 21.560076 -7.523085 8.589207 34.082195 -57.765171 10.918862 14.441749 -36.234989 13.181176 8.477946 -37.136505 -51.053371 6.104116 -0.001257 145.193665 5.531420 -0.735253 56.309616 8.205308 3.192663 -117.055717 -6.109780 -0.000808 106.199036 -5.531147 0.730154 3.311987 -8.210266 -3.194896 
